<svg xmlns="http://www.w3.org/2000/svg" xmlns:xlink="http://www.w3.org/1999/xlink">
    <symbol id="front" viewBox="0 0 32 32">
        <path d="M24.569 26.706h-3.488c-0.126 0-0.229-0.103-0.229-0.229v-0.849c0-0.126-0.103-0.229-0.229-0.229h-4.881c-0.126 0-0.229 0.103-0.229 0.229v0.849c0 0.126-0.103 0.229-0.229 0.229h-2.622c-0.126 0-0.229 0.103-0.229 0.229v0.982c0 0.126 0.103 0.229 0.229 0.229h11.906c0.126 0 0.229-0.103 0.229-0.229v-0.982c0-0.126-0.103-0.229-0.229-0.229z"></path>
        <path d="M30.429 3.742h-24.89c-0.866 0-1.571 0.705-1.571 1.571 0 0 0 2.995 0 4.097 0 0.542-0.040 0.618 0.323 0.618 0.193 0 0.407 0 0.623 0 0.305 0 0.242-0.077 0.242-0.628 0-1.099 0-4.087 0-4.087 0-0.207 0.175-0.382 0.382-0.382h24.89c0.207 0 0.382 0.175 0.382 0.382v15.334h-17.745c0 0-0.625-0.001-0.625 0.808 0 0.479 0 1.438 0 1.918 0 0.808 0.646 0.808 0.646 0.808h17.343c0.866 0 1.571-0.704 1.571-1.57v-17.297c0-0.866-0.705-1.571-1.571-1.571zM17.984 22.824c-0.391 0-0.708-0.317-0.708-0.708s0.317-0.708 0.708-0.708c0.391 0 0.708 0.317 0.708 0.708s-0.317 0.708-0.708 0.708z"></path>
        <path d="M10.018 11.431h-9.004c-0.559 0-1.014 0.455-1.014 1.014v14.799c0 0.559 0.455 1.014 1.014 1.014h9.004c0.559 0 1.014-0.455 1.014-1.014v-14.799c0-0.559-0.455-1.014-1.014-1.014zM4.405 12.465h2.221c0.106 0 0.192 0.086 0.192 0.192s-0.086 0.192-0.192 0.192h-2.221c-0.106 0-0.192-0.086-0.192-0.192s0.086-0.192 0.192-0.192zM5.502 27.546c-0.29 0-0.525-0.235-0.525-0.525s0.235-0.525 0.525-0.525 0.525 0.235 0.525 0.525-0.235 0.525-0.525 0.525zM10.161 26.004c0 0.135-0.108 0.246-0.241 0.246h-8.808c-0.132 0-0.24-0.111-0.24-0.246v-12.298c0-0.135 0.108-0.246 0.24-0.246h8.808c0.132 0 0.241 0.111 0.241 0.246v12.298z"></path>
    </symbol>
    <symbol id="github" viewBox="0 0 32 32">
        <path d="M31.973 15.588l0.027-0.292c-1.778-0.172-3.547-0.187-5.266-0.057 0.276-0.871 0.421-1.855 0.41-2.974-0.021-2.378-0.824-4.229-2.083-5.764 0.242-1.448 0.061-2.894-0.397-4.342-1.801 0.146-3.422 0.728-4.864 1.741-2.698-0.542-5.395-0.575-8.093 0-1.682-1.123-3.336-1.674-4.962-1.741-0.483 1.594-0.558 3.165-0.15 4.709-1.419 1.489-1.962 3.297-1.934 5.299 0.014 1.146 0.193 2.164 0.522 3.066-1.692-0.123-3.433-0.107-5.183 0.062l0.027 0.292c1.784-0.171 3.556-0.186 5.275-0.052 0.064 0.151 0.128 0.302 0.199 0.447-1.864-0.049-3.543 0.111-5.113 0.493l0.070 0.285c1.596-0.387 3.305-0.543 5.213-0.48 1.261 2.216 3.689 3.518 7.227 3.931-0.823 0.658-1.264 1.437-1.377 2.318 0 0-0.373 0-1.873 0-2.517 0-3.203-3.172-5.809-2.858 2.528 1.24 2.024 5.2 6.069 5.2 1.36 0 1.65 0 1.699 0v3.63c0.019 0.587-0.24 0.979-0.657 1.251 1.448 0.144 2.538-0.569 2.538-1.447 0-0.877 0-4.371 0-4.797 0-0.43 0.453-0.463 0.453-0.463v5.603c0.018 0.559-0.256 0.876-0.547 1.179 1.277 0.050 2.478-0.201 2.532-1.277 0 0 0-5.090 0-5.36s0.446-0.276 0.446 0c0 0.276 0 5.11 0 5.11 0.014 0.905 0.805 1.641 2.48 1.527-0.446-0.358-0.585-0.719-0.585-1.24s0-5.541 0-5.541 0.462-0.022 0.462 0.463c0 0.481 0 3.862 0 4.671 0 1.041 1.265 1.471 2.706 1.43-0.472-0.351-0.793-0.768-0.794-1.325v-5.619c-0.050-0.826-0.39-1.605-1.056-2.33 3.232-0.491 5.563-1.768 6.724-4.053 1.915-0.065 3.628 0.090 5.23 0.479l0.070-0.285c-1.585-0.385-3.276-0.545-5.16-0.493 0.066-0.146 0.131-0.29 0.185-0.443 1.74-0.138 3.531-0.124 5.335 0.048zM4.972 20.146c-0.080 0-0.146-0.046-0.146-0.099 0-0.057 0.067-0.102 0.146-0.102 0.078 0 0.144 0.045 0.144 0.102 0 0.053-0.066 0.099-0.144 0.099zM5.423 20.452c-0.087 0-0.16-0.050-0.16-0.112s0.073-0.111 0.16-0.111c0.089 0 0.16 0.049 0.16 0.111s-0.071 0.112-0.16 0.112zM5.883 20.849c-0.104 0-0.187-0.059-0.187-0.131 0-0.074 0.082-0.133 0.187-0.133s0.187 0.059 0.187 0.133c0 0.072-0.084 0.131-0.187 0.131zM6.33 21.324c-0.121 0-0.22-0.068-0.22-0.153s0.099-0.153 0.22-0.153c0.121 0 0.22 0.068 0.22 0.153s-0.099 0.153-0.22 0.153zM6.82 21.863c-0.134 0-0.243-0.077-0.243-0.17 0-0.096 0.109-0.172 0.243-0.172 0.137 0 0.245 0.076 0.245 0.172 0 0.093-0.108 0.17-0.245 0.17zM7.391 22.41c-0.149 0-0.27-0.085-0.27-0.189s0.12-0.191 0.27-0.191c0.151 0 0.271 0.086 0.271 0.191s-0.12 0.189-0.271 0.189zM8.161 22.93c-0.166 0-0.301-0.094-0.301-0.211s0.135-0.211 0.301-0.211c0.166 0 0.301 0.094 0.301 0.211s-0.135 0.211-0.301 0.211zM9.116 23.209c-0.165 0-0.303-0.096-0.303-0.211 0-0.117 0.138-0.212 0.303-0.212s0.302 0.095 0.302 0.212c0 0.115-0.137 0.211-0.302 0.211zM10.123 23.239c-0.167 0-0.302-0.094-0.302-0.209 0-0.118 0.135-0.212 0.302-0.212 0.166 0 0.299 0.094 0.299 0.212 0 0.115-0.133 0.209-0.299 0.209zM11.116 23.26c-0.165 0-0.301-0.094-0.301-0.213 0-0.115 0.136-0.21 0.301-0.21 0.166 0 0.301 0.095 0.301 0.21 0 0.119-0.135 0.213-0.301 0.213z"></path>
    </symbol>
    <symbol id="linkedin" viewBox="0 0 512 512">
        <path d="M192 192h88.553v45.391h1.266c12.32-22.097 42.479-45.391 87.421-45.391 93.473 0 110.76 58.188 110.76 133.867v154.133h-92.305v-136.639c0-32.592-0.667-74.513-48.014-74.513-48.074 0-55.41 35.493-55.41 72.146v139.006h-92.271v-288z"></path>
        <path d="M32 192h96v288h-96v-288z"></path>
        <path d="M128 112c0 26.51-21.49 48-48 48s-48-21.49-48-48c0-26.51 21.49-48 48-48s48 21.49 48 48z"></path>
    </symbol>
    <symbol id="envelope" viewBox="0 0 32 32">
        <path d="M32 12.679v14.179c0 1.571-1.286 2.857-2.857 2.857h-26.286c-1.571 0-2.857-1.286-2.857-2.857v-14.179c0.536 0.589 1.143 1.107 1.804 1.554 2.964 2.018 5.964 4.036 8.875 6.161 1.5 1.107 3.357 2.464 5.304 2.464h0.036c1.946 0 3.804-1.357 5.304-2.464 2.911-2.107 5.911-4.143 8.893-6.161 0.643-0.446 1.25-0.964 1.786-1.554zM32 7.429c0 2-1.482 3.804-3.054 4.893-2.786 1.929-5.589 3.857-8.357 5.804-1.161 0.804-3.125 2.446-4.571 2.446h-0.036c-1.446 0-3.411-1.643-4.571-2.446-2.768-1.946-5.571-3.875-8.339-5.804-1.268-0.857-3.071-2.875-3.071-4.5 0-1.75 0.946-3.25 2.857-3.25h26.286c1.554 0 2.857 1.286 2.857 2.857z"></path>
    </symbol>
    <symbol id="phone" viewBox="0 0 32 32">
        <path d="M22 20c-2 2-2 4-4 4s-4-2-6-4-4-4-4-6 2-2 4-4-4-8-6-8-6 6-6 6c0 4 4.109 12.109 8 16s12 8 16 8c0 0 6-4 6-6s-6-8-8-6z"></path>
    </symbol>
    <symbol id="html" viewBox="0 0 32 32">
        <path d="M1.892 0l2.567 28.801 11.524 3.199 11.554-3.204 2.572-28.796h-28.216zM24.52 9.42h-13.517l0.322 3.617h12.874l-0.97 10.844-7.245 2.008-7.237-2.008-0.495-5.547h3.547l0.252 2.82 3.933 1.060 0.009-0.002 3.935-1.062 0.408-4.58h-12.242l-0.953-10.681h17.694l-0.316 3.532z"></path>
    </symbol>
    <symbol id="css" viewBox="0 0 32 32">
        <path d="M2 0h28l-2.547 28.751-11.484 3.249-11.42-3.251-2.549-28.749zM24.787 5.884l-17.573-0.004 0.284 3.496 13.5 0.003-0.34 3.621h-8.853l0.32 3.431h8.243l-0.488 4.697-3.88 1.072-3.941-1.080-0.251-2.813h-3.48l0.387 5.14 7.287 2.271 7.164-2.040 1.623-17.792z"></path>
    </symbol>
    <symbol id="js" viewBox="0 0 32 32">
        <path d="M0 0h32v32h-32v-32zM29.379 24.368c-0.233-1.46-1.184-2.687-4.004-3.831-0.981-0.46-2.072-0.78-2.396-1.52-0.121-0.44-0.14-0.68-0.061-0.94 0.2-0.861 1.22-1.12 2.020-0.88 0.52 0.16 1 0.56 1.301 1.2 1.379-0.901 1.379-0.901 2.34-1.5-0.36-0.56-0.539-0.801-0.781-1.040-0.84-0.94-1.959-1.42-3.779-1.379l-0.94 0.119c-0.901 0.22-1.76 0.7-2.28 1.34-1.52 1.721-1.081 4.721 0.759 5.961 1.82 1.36 4.481 1.659 4.821 2.94 0.32 1.56-1.16 2.060-2.621 1.88-1.081-0.24-1.68-0.781-2.34-1.781l-2.44 1.401c0.28 0.64 0.6 0.919 1.080 1.479 2.32 2.341 8.12 2.221 9.161-1.339 0.039-0.12 0.32-0.94 0.099-2.2l0.061 0.089zM17.401 14.708h-2.997c0 2.584-0.012 5.152-0.012 7.74 0 1.643 0.084 3.151-0.184 3.615-0.44 0.919-1.573 0.801-2.088 0.64-0.528-0.261-0.796-0.621-1.107-1.14-0.084-0.14-0.147-0.261-0.169-0.261l-2.433 1.5c0.407 0.84 1 1.563 1.765 2.023 1.14 0.68 2.672 0.9 4.276 0.54 1.044-0.301 1.944-0.921 2.415-1.881 0.68-1.24 0.536-2.76 0.529-4.461 0.016-2.739 0-5.479 0-8.239l0.005-0.075z"></path>
    </symbol>
    <symbol id="jquery" viewBox="0 0 32 32">
        <path d="M2.045 7.832c-2.831 4.067-2.48 9.356-0.316 13.675 0.049 0.105 0.104 0.205 0.157 0.305 0.031 0.069 0.065 0.133 0.103 0.199 0.017 0.037 0.041 0.076 0.063 0.111 0.035 0.069 0.072 0.136 0.108 0.203l0.209 0.353c0.039 0.065 0.076 0.129 0.12 0.195 0.073 0.125 0.16 0.249 0.236 0.375 0.035 0.052 0.067 0.104 0.105 0.156 0.148 0.232 0.284 0.425 0.428 0.612l-0.015-0.020c0.104 0.143 0.208 0.281 0.32 0.42 0.036 0.051 0.076 0.101 0.113 0.152l0.295 0.359c0.036 0.041 0.072 0.089 0.111 0.132 0.131 0.157 0.269 0.311 0.408 0.465 0 0.003 0.004 0.005 0.007 0.009 0.172 0.217 0.358 0.409 0.56 0.582l0.006 0.005c0.107 0.109 0.213 0.219 0.327 0.325l0.135 0.129c0.148 0.139 0.296 0.277 0.452 0.411 0.003 0 0.004 0.003 0.007 0.004l0.076 0.067c0.136 0.119 0.273 0.237 0.413 0.347l0.167 0.14c0.113 0.091 0.231 0.177 0.347 0.267l0.181 0.139c0.124 0.093 0.256 0.185 0.383 0.276 0.047 0.033 0.093 0.067 0.141 0.097l0.039 0.031 0.375 0.247 0.16 0.107c0.196 0.125 0.391 0.244 0.584 0.361 0.056 0.028 0.112 0.059 0.164 0.091 0.144 0.083 0.293 0.167 0.439 0.244 0.080 0.045 0.163 0.084 0.245 0.125 0.1 0.056 0.204 0.111 0.311 0.167 0.029 0.009 0.054 0.019 0.077 0.032l-0.002-0.001c0.044 0.020 0.085 0.041 0.128 0.063 0.16 0.080 0.327 0.156 0.5 0.232 0.032 0.013 0.067 0.027 0.101 0.045 0.192 0.084 0.384 0.164 0.583 0.243 0.045 0.013 0.093 0.036 0.14 0.053 0.18 0.068 0.365 0.137 0.548 0.203l0.067 0.024c0.204 0.069 0.405 0.136 0.612 0.2 0.048 0.013 0.097 0.031 0.148 0.044 0.212 0.064 0.417 0.14 0.631 0.181 13.68 2.493 17.656-8.225 17.656-8.225-3.34 4.349-9.267 5.496-14.88 4.22-0.208-0.048-0.416-0.115-0.625-0.176-0.382-0.11-0.633-0.192-0.882-0.28l0.126 0.039-0.083-0.032c-0.181-0.061-0.356-0.129-0.533-0.197-0.034-0.015-0.082-0.033-0.132-0.050l-0.015-0.004c-0.196-0.079-0.387-0.16-0.576-0.244-0.041-0.013-0.076-0.032-0.117-0.048-0.35-0.155-0.508-0.231-0.665-0.308l0.184 0.081c-0.049-0.021-0.093-0.044-0.141-0.069-0.125-0.059-0.251-0.125-0.373-0.189-0.114-0.054-0.196-0.097-0.276-0.142l0.027 0.014c-0.151-0.080-0.301-0.167-0.452-0.249-0.045-0.032-0.097-0.059-0.149-0.088-0.289-0.169-0.479-0.288-0.668-0.409l0.084 0.050c-0.064-0.040-0.115-0.075-0.165-0.111l0.008 0.006c-0.172-0.106-0.308-0.197-0.44-0.291l0.024 0.017c-0.047-0.031-0.089-0.064-0.137-0.097-0.17-0.118-0.298-0.211-0.424-0.306l0.032 0.023c-0.056-0.045-0.116-0.088-0.176-0.133-0.117-0.092-0.236-0.18-0.353-0.277l-0.157-0.125c-0.174-0.14-0.319-0.263-0.461-0.388l0.016 0.013c-0.015-0.014-0.031-0.028-0.048-0.039l-0.001-0.001-0.463-0.421-0.133-0.125c-0.109-0.111-0.221-0.217-0.333-0.327l-0.129-0.133c-0.138-0.137-0.273-0.278-0.404-0.421l-0.008-0.009-0.020-0.021c-0.141-0.155-0.279-0.312-0.417-0.472-0.036-0.041-0.069-0.085-0.107-0.129l-0.301-0.369c-0.105-0.131-0.254-0.326-0.4-0.522l-0.054-0.075c-3.113-4.251-4.24-10.117-1.748-14.929z"></path>
        <path d="M10.828 4.407c-2.052 2.945-1.936 6.884-0.339 9.999 0.296 0.584 0.596 1.078 0.928 1.547l-0.025-0.038c0.307 0.44 0.645 0.96 1.056 1.315 0.143 0.163 0.297 0.32 0.459 0.479l0.12 0.12c0.152 0.147 0.308 0.291 0.467 0.433l0.020 0.017c0.16 0.141 0.34 0.29 0.524 0.435l0.028 0.021c0.045 0.031 0.084 0.067 0.128 0.097 0.187 0.144 0.375 0.283 0.569 0.42l0.020 0.012c0.083 0.060 0.171 0.115 0.264 0.173 0.037 0.024 0.080 0.056 0.12 0.080 0.141 0.091 0.28 0.176 0.423 0.263 0.023 0.009 0.043 0.021 0.064 0.031 0.12 0.073 0.251 0.144 0.376 0.209 0.044 0.027 0.087 0.047 0.132 0.072 0.089 0.044 0.177 0.091 0.263 0.136l0.043 0.019c0.18 0.088 0.364 0.171 0.544 0.253 0.045 0.017 0.084 0.032 0.123 0.051 0.148 0.064 0.299 0.125 0.447 0.183 0.067 0.023 0.129 0.049 0.192 0.069 0.136 0.051 0.279 0.097 0.413 0.144l0.187 0.060c0.195 0.060 0.392 0.139 0.597 0.172 10.56 1.751 13.005-6.383 13.005-6.383-2.201 3.168-6.461 4.677-11.001 3.499-0.277-0.071-0.476-0.13-0.673-0.195l0.076 0.022c-0.064-0.017-0.12-0.037-0.181-0.056-0.139-0.048-0.281-0.095-0.416-0.145l-0.192-0.072c-0.149-0.060-0.301-0.116-0.447-0.18-0.045-0.020-0.087-0.033-0.121-0.053-0.187-0.084-0.375-0.167-0.556-0.256l-0.275-0.143-0.159-0.080c-0.123-0.064-0.236-0.131-0.353-0.2-0.033-0.016-0.060-0.031-0.086-0.047l0.003 0.002c-0.141-0.088-0.288-0.173-0.423-0.264-0.045-0.025-0.087-0.056-0.129-0.083l-0.277-0.181c-0.192-0.133-0.38-0.277-0.569-0.416-0.043-0.039-0.084-0.071-0.125-0.105-1.996-1.569-3.571-3.715-4.317-6.144-0.787-2.525-0.613-5.357 0.745-7.656z"></path>
        <path d="M18.213 1.845c-1.211 1.776-1.327 3.981-0.493 5.94 0.885 2.080 2.696 3.713 4.805 4.487 0.087 0.033 0.171 0.061 0.26 0.093l0.117 0.036c0.123 0.039 0.247 0.084 0.373 0.112 5.835 1.125 7.413-2.996 7.839-3.601-1.389 1.995-3.719 2.473-6.576 1.779-0.279-0.070-0.509-0.143-0.732-0.228l0.044 0.015c-0.337-0.119-0.609-0.233-0.873-0.361l0.050 0.022c-0.55-0.269-1.022-0.562-1.462-0.896l0.021 0.016c-2.56-1.939-4.145-5.64-2.476-8.655z"></path>
    </symbol>
    <symbol id="less" viewBox="0 0 32 32">
        <path d="M4.2 6.2c0.4 2.6 0.8 3.2 0.8 5.8 0 1.6-3 3-3 3v2c0 0 3 1.4 3 3 0 2.6-0.4 3.2-0.8 5.8-0.6 4.2 1.6 6.2 3.6 6.2s4.2 0 4.2 0v-4c0 0-3.6 0.4-3.6-2 0-1.8 0.4-1.8 0.8-5.8 0.2-1.8-1-3.2-2.2-4.2 1.2-1 2.4-2.2 2.2-4-0.6-4-0.8-4-0.8-5.8 0-2.4 3.6-2.2 3.6-2.2v-4c0 0-2 0-4.2 0s-4.2 2-3.6 6.2z"></path>
        <path d="M27.8 6.2c-0.4 2.6-0.8 3.2-0.8 5.8 0 1.6 3 3 3 3v2c0 0-3 1.4-3 3 0 2.6 0.4 3.2 0.8 5.8 0.6 4.2-1.6 6.2-3.6 6.2s-4.2 0-4.2 0v-4c0 0 3.6 0.4 3.6-2 0-1.8-0.4-1.8-0.8-5.8-0.2-1.8 1-3.2 2.2-4.2-1.2-1-2.4-2.2-2.2-4 0.4-4 0.8-4 0.8-5.8 0-2.4-3.6-2.2-3.6-2.2v-4c0 0 2 0 4.2 0s4.2 2 3.6 6.2z"></path>
    </symbol>
    <symbol id="scss" viewBox="0 0 32 32">
        <path d="M16 0c8.836 0 16 7.164 16 16s-7.164 16-16 16-16-7.164-16-16 7.164-16 16-16zM12.82 21.331c0.233 0.86 0.208 1.664-0.032 2.389l-0.087 0.24c-0.032 0.081-0.069 0.16-0.104 0.235-0.187 0.387-0.435 0.747-0.74 1.080-0.931 1.012-2.229 1.396-2.787 1.073-0.6-0.349-0.301-1.78 0.779-2.92 1.161-1.224 2.827-2.012 2.827-2.012v-0.004l0.144-0.081zM26.035 6.849c-0.723-2.844-5.436-3.779-9.896-2.193-2.652 0.943-5.525 2.424-7.591 4.356-2.457 2.295-2.848 4.295-2.687 5.131 0.569 2.948 4.609 4.876 6.271 6.307v0.008c-0.489 0.24-4.075 2.039-4.915 3.9-0.9 1.96 0.14 3.361 0.82 3.54 2.1 0.581 4.26-0.48 5.42-2.199 1.12-1.681 1.021-3.841 0.539-4.901 0.661-0.18 1.44-0.26 2.44-0.139 2.801 0.32 3.361 2.080 3.24 2.8-0.12 0.719-0.697 1.139-0.899 1.259-0.2 0.121-0.26 0.16-0.241 0.241 0.020 0.12 0.121 0.12 0.28 0.1 0.22-0.040 1.461-0.6 1.521-1.961 0.060-1.72-1.581-3.639-4.5-3.6-1.2 0.021-1.961 0.121-2.5 0.341-0.040-0.060-0.081-0.1-0.14-0.14-1.8-1.94-5.14-3.3-5-5.88 0.040-0.94 0.38-3.419 6.4-6.419 4.94-2.461 8.881-1.78 9.561-0.28 0.977 2.139-2.101 6.12-7.241 6.699-1.96 0.22-2.98-0.539-3.241-0.82-0.279-0.3-0.319-0.32-0.419-0.259-0.16 0.080-0.060 0.34 0 0.5 0.16 0.4 0.78 1.1 1.861 1.46 0.939 0.3 3.24 0.479 6-0.6 3.099-1.199 5.519-4.54 4.819-7.34l0.097 0.089z"></path>
    </symbol>
    <symbol id="bootstrap" viewBox="0 0 32 32">
        <path d="M26.667 0h-21.333c-2.943 0.008-5.325 2.391-5.333 5.333v21.333c0 2.933 2.4 5.333 5.333 5.333h21.333c2.933 0 5.333-2.4 5.333-5.333v-21.333c0-2.933-2.4-5.333-5.333-5.333zM23.751 22.473c-0.267 0.643-0.689 1.209-1.231 1.645-0.56 0.453-1.269 0.827-2.143 1.093-0.872 0.271-1.909 0.407-3.111 0.407h-8.576v-18.667h9.069c1.677 0 3.021 0.377 4.027 1.147 1.013 0.773 1.517 1.925 1.517 3.48 0 0.94-0.229 1.747-0.691 2.413-0.459 0.663-1.12 1.181-1.973 1.541v0.061c1.139 0.24 2.020 0.78 2.6 1.62s0.877 1.901 0.877 3.183c0 0.717-0.139 1.4-0.4 2.037l0.033 0.036zM20.049 17.873c-0.547-0.5-1.315-0.744-2.307-0.744h-5.763v5.824h5.779c0.987 0 1.76-0.256 2.307-0.773 0.547-0.513 0.827-1.245 0.827-2.187-0.009-0.92-0.28-1.632-0.827-2.12h-0.023zM19.249 14.109c0.528-0.448 0.787-1.089 0.787-1.925 0-0.939-0.233-1.605-0.707-1.987-0.469-0.38-1.147-0.577-2.037-0.577h-5.333v5.151h5.333c0.777 0 1.44-0.227 1.952-0.661z"></path>
    </symbol>
    <symbol id="wordpress" viewBox="0 0 32 32">
        <path d="M4 16c0 4.626 2.76 8.624 6.763 10.518l-5.724-15.274c-0.666 1.453-1.039 3.062-1.039 4.756zM24.101 15.41c0-1.445-0.533-2.445-0.989-3.223-0.608-0.963-1.179-1.778-1.179-2.741 0-1.074 0.836-2.074 2.015-2.074 0.053 0 0.104 0.006 0.155 0.009-2.135-1.905-4.979-3.069-8.103-3.069-4.192 0-7.881 2.095-10.026 5.268 0.282 0.009 0.547 0.014 0.772 0.014 1.255 0 3.198-0.149 3.198-0.149 0.647-0.037 0.723 0.889 0.077 0.963 0 0-0.65 0.074-1.373 0.111l4.37 12.66 2.626-7.671-1.869-4.989c-0.646-0.037-1.259-0.111-1.259-0.111-0.647-0.037-0.571-1 0.076-0.963 0 0 1.981 0.149 3.16 0.149 1.255 0 3.198-0.149 3.198-0.149 0.647-0.037 0.723 0.889 0.076 0.963 0 0-0.651 0.074-1.373 0.111l4.337 12.563 1.197-3.895c0.518-1.617 0.913-2.778 0.913-3.778zM16.211 17.022l-3.601 10.189c1.075 0.308 2.212 0.476 3.39 0.476 1.397 0 2.738-0.235 3.985-0.663-0.032-0.050-0.062-0.103-0.086-0.161l-3.688-9.842zM26.53 10.393c0.052 0.372 0.081 0.771 0.081 1.202 0 1.185-0.228 2.519-0.913 4.186l-3.665 10.321c3.568-2.026 5.967-5.79 5.967-10.102 0-2.032-0.533-3.943-1.47-5.607zM16 0c-8.837 0-16 7.163-16 16s7.163 16 16 16 16-7.163 16-16-7.163-16-16-16zM16 30c-7.732 0-14-6.268-14-14s6.268-14 14-14 14 6.268 14 14-6.268 14-14 14z"></path>
    </symbol>
    <symbol id="confluence" viewBox="0 0 32 32">
        <path d="M1.389 23.974c-0.326 0.531-0.692 1.148-1.003 1.639-0.088 0.146-0.14 0.322-0.14 0.511 0 0.359 0.188 0.673 0.471 0.851l0.004 0.002 6.517 4.011c0.15 0.094 0.332 0.149 0.527 0.149 0.365 0 0.684-0.195 0.859-0.486l0.003-0.005c0.261-0.436 0.597-1.003 0.963-1.609 2.582-4.261 5.179-3.74 9.861-1.504l6.462 3.073c0.126 0.061 0.274 0.097 0.431 0.097 0.408 0 0.758-0.243 0.915-0.592l0.003-0.006 3.103-7.019c0.053-0.118 0.084-0.256 0.084-0.402 0-0.402-0.237-0.749-0.579-0.909l-0.006-0.003c-1.364-0.642-4.076-1.92-6.517-3.098-8.783-4.266-16.248-3.991-21.958 5.299z"></path>
        <path d="M30.611 8.047c0.326-0.531 0.692-1.148 1.003-1.639 0.088-0.146 0.14-0.322 0.14-0.511 0-0.359-0.188-0.673-0.471-0.851l-0.004-0.002-6.517-4.011c-0.157-0.107-0.351-0.171-0.56-0.171-0.369 0-0.692 0.2-0.866 0.497l-0.003 0.005c-0.261 0.436-0.597 1.003-0.963 1.609-2.582 4.261-5.179 3.74-9.861 1.504l-6.442-3.058c-0.126-0.061-0.274-0.097-0.431-0.097-0.408 0-0.758 0.243-0.915 0.592l-0.003 0.006-3.103 7.019c-0.053 0.118-0.084 0.256-0.084 0.402 0 0.402 0.237 0.749 0.579 0.909l0.006 0.003c1.364 0.642 4.076 1.92 6.517 3.098 8.803 4.261 16.268 3.976 21.978-5.304z"></path>
    </symbol>
    <symbol id="trello" viewBox="0 0 32 32">
        <path d="M28 0h-24c-2.209 0-4 1.791-4 4v24c0 2.208 1.791 4 4 4h24c2.208 0 4-1.792 4-4v-24c0-2.209-1.792-4-4-4zM13.92 24.24c0 1.060-0.86 1.92-1.92 1.92h-5.92c-1.060 0-1.92-0.861-1.92-1.92v-18.16c0-1.060 0.86-1.92 1.92-1.92h5.92c1.060 0 1.92 0.86 1.92 1.92v18.16zM27.84 16.24c0 1.059-0.86 1.92-1.92 1.92h-5.92c-1.060 0-1.92-0.861-1.92-1.92v-10.16c0-1.060 0.861-1.92 1.92-1.92h5.92c1.060 0 1.92 0.86 1.92 1.92v10.16z"></path>
    </symbol>
    <symbol id="jira" viewBox="0 0 32 32">
        <path d="M30.869 15.119l-14.869-14.869-14.869 14.869c-0.225 0.226-0.365 0.537-0.365 0.881s0.139 0.656 0.365 0.881v0l14.869 14.869 14.869-14.869c0.225-0.226 0.365-0.537 0.365-0.881s-0.139-0.656-0.365-0.881v0zM16 20.657l-4.657-4.657 4.657-4.657 4.657 4.657z"></path>
    </symbol>
    <symbol id="hipchat" viewBox="0 0 32 32">
        <path d="M26.315 25.408s0.137-0.097 0.356-0.264c3.276-2.533 5.329-6.207 5.329-10.292 0-7.62-7.164-13.803-15.996-13.803-8.835 0-16.004 6.183-16.004 13.803 0 7.623 7.161 13.808 15.997 13.808 1.129 0 2.259-0.097 3.365-0.304l0.349-0.060c2.244 1.456 5.519 2.653 8.384 2.653 0.887 0 1.304-0.728 0.736-1.472-0.864-1.060-2.055-2.757-2.517-4.069zM24.365 19.373c-0.955 1.425-3.912 3.852-8.339 3.852h-0.061c-4.437 0-7.391-2.441-8.339-3.852-0.185-0.207-0.315-0.468-0.363-0.756l-0.001-0.009c-0.001-0.015-0.002-0.033-0.002-0.050 0-0.341 0.262-0.622 0.595-0.651l0.002-0c0.011-0.004 0.019-0.004 0.028-0.004 0.156 0.008 0.307 0.057 0.437 0.148 2.073 1.701 4.751 2.735 7.671 2.741h0.001c0.040 0 0.087 0.001 0.134 0.001 2.881 0 5.52-1.038 7.563-2.761l-0.018 0.014c0.109-0.101 0.256-0.163 0.417-0.163 0 0 0.001 0 0.001 0h-0c0.356 0 0.637 0.284 0.644 0.633-0.043 0.328-0.171 0.62-0.36 0.861l0.003-0.004h-0.015z"></path>
    </symbol>
    <symbol id="git" viewBox="0 0 32 32">
        <path d="M31.395 14.573l-13.972-13.971c-0.805-0.804-2.109-0.804-2.917 0l-2.895 2.9 3.68 3.68c0.86-0.287 1.839-0.093 2.519 0.588 0.688 0.687 0.877 1.677 0.584 2.533l3.544 3.547c0.86-0.297 1.849-0.104 2.533 0.58 0.961 0.96 0.961 2.512 0 3.472-0.959 0.959-2.508 0.959-3.467 0-0.719-0.721-0.899-1.783-0.539-2.661l-3.319-3.301v8.7c0.235 0.115 0.456 0.271 0.651 0.464 0.951 0.961 0.951 2.511 0 3.467-0.959 0.961-2.519 0.961-3.479 0-0.959-0.959-0.959-2.505 0-3.464 0.243-0.24 0.516-0.421 0.807-0.541v-8.785c-0.289-0.121-0.565-0.296-0.8-0.535-0.727-0.727-0.901-1.789-0.528-2.679l-3.616-3.633-9.581 9.575c-0.8 0.807-0.8 2.112 0 2.919l13.973 13.969c0.805 0.805 2.109 0.805 2.915 0l13.907-13.907c0.807-0.804 0.807-2.109 0-2.916z"></path>
    </symbol>
    <symbol id="gulp" viewBox="0 0 32 32">
        <path d="M20.208 25.909l0.848-1.445s-1.925 0.788-5.147 0.788c-3.224 0-5.12-0.757-5.12-0.757l0.948 1.577 0.336 4.972c0 0.537 1.752 0.957 3.915 0.957 2.164 0 3.917-0.419 3.917-0.957l0.305-5.113v-0.021zM21.028 16.515c-1.025 0.061-1.537 1.204-2.052 2.407-0.191 0.44-0.84 2.316-1.264 2.084-0.424-0.231 0.551-1.772 0.825-2.689-0.316 0.232-1.473 1.132-1.772 0.287-0.477 0.419-1.505 0.64-1.389-0.439-0.255 0.46-0.828 1.097-1.519 0.819-0.897-0.34 0.527-3.215 0.88-3.076 0.355 0.161-0.071 0.8-0.181 1.059-0.248 0.559-0.531 1.277-0.34 1.417 0.32 0.259 1.205-0.937 1.225-0.959 0.165-0.22 0.639-1.639 1.017-1.476 0.38 0.179-0.948 2.055-0.453 2.435 0.101 0.080 0.511-0.040 0.759-0.319 0.16-0.16 0.104-0.56 0.639-1.837 0.539-1.279 1.019-2.875 1.385-2.755s0.065 0.937-0.068 1.257c-0.619 1.437-1.691 3.792-1.187 3.613 0.499-0.18 0.759-0.18 1.257-0.759s0.46-1.536 0.799-1.516c0.32 0.019 0.28 0.339 0.2 0.557 0.32-0.36 1.536-1.157 1.817-0.379 0.339 0.917-1.739 2.256-1.219 2.176 0.5-0.060 1.317-0.579 1.677-1.057l0.959-8.667s-0.979 0.8-7.148 0.8-7.045-0.779-7.045-0.779l0.817 7.907c0.44-1.237 1.477-3.752 3.096-3.653 0.739 0.040 1.737 1.479 0.877 1.519-0.36 0.020-0.4-0.719-0.819-0.819-0.319-0.061-0.739 0.18-1.017 0.46-0.539 0.539-1.739 2.675-1.579 3.735 0.2 1.357 1.876-0.461 2.156-1 0.199-0.377 0.339-1.517 0.757-1.397 0.44 0.12-0.039 1.299-0.36 2.316-0.36 1.159-0.539 2.375-0.976 2.235-0.44-0.139 0.279-1.636 0.237-1.896-0.417 0.399-1.177 1.36-2.175 0.879l0.499 4.932s1.359 1.057 5.431 1.057 5.491-1.057 5.491-1.057l0.639-5.711c-0.519 0.52-2.156 1.417-2.256 0.4-0.079-0.819 1.777-1.997 1.299-2.019l0.080-0.092zM23.128 0.892l-3.545 3.733-0.648 2.535c2.508 0.16 4.252 0.515 4.252 0.925 0 0.559-3.219 1.009-7.188 1.009s-7.187-0.457-7.187-1.017c0-0.559 3.219-1.019 7.188-1.019 0.564 0 1.125 0 1.685 0.021l0.748-3.035 3.767-3.993c0.091-0.12 0.373-0.020 0.632 0.2 0.259 0.199 0.399 0.459 0.319 0.579v0.040l-0.023 0.021zM18.016 8.619s-0.697 0-0.813-0.107c-0.029-0.033-0.048-0.077-0.048-0.12 0-0.077 0.052-0.121 0.12-0.147l0.059 0.1c-0.028 0.008-0.039 0.020-0.044 0.031 0 0.055 0.419 0.092 0.74 0.088 0.319-0.004 0.708-0.031 0.711-0.085 0-0.016-0.031-0.031-0.081-0.044l0.060-0.096c0.084 0.027 0.156 0.077 0.156 0.161 0 0.147-0.188 0.171-0.307 0.188-0.143 0.020-0.549 0.031-0.549 0.031h-0.003z"></path>
    </symbol>
    <symbol id="google" viewBox="0 0 32 32">
        <path d="M16.32 13.713v5.487h9.075c-0.367 2.353-2.741 6.899-9.075 6.899-5.46 0-9.919-4.519-9.919-10.099s4.46-10.099 9.919-10.099c3.107 0 5.188 1.319 6.38 2.465l4.339-4.184c-2.787-2.601-6.4-4.183-10.719-4.183-8.847 0-16 7.153-16 16s7.153 16 16 16c9.235 0 15.36-6.492 15.36-15.635 0-1.051-0.113-1.853-0.252-2.652h-15.108z"></path>
    </symbol>
    <symbol id="phpstorm" viewBox="0 0 32 32">
        <path d="M6.912 3.816c-0.304 0.344-0.568 0.64-0.592 0.664-0.040 0.040-0.848 0.96-1.368 1.56-0.12 0.128-0.592 0.672-1.064 1.2-0.696 0.792-0.84 0.992-0.808 1.16 0.024 0.112 0.56 3.352 1.2 7.2s1.184 7.096 1.208 7.224l0.048 0.216h2.464v0.96h2.224l0.144 0.96c0.072 0.528 0.168 0.992 0.192 1.048 0.064 0.088 8.632 3.12 8.712 3.080s9.648-5.744 9.664-5.76c0.016-0.016-0.664-1.328-1.496-2.936-0.832-1.6-1.52-2.936-1.52-2.976 0-0.032 0.544-0.624 1.216-1.32 0.672-0.688 1.352-1.4 1.52-1.576l0.304-0.32-1.072-2.52c-0.584-1.384-1.328-3.224-1.648-4.080-0.328-0.856-0.608-1.584-0.632-1.616s-1.512-0.328-3.304-0.664l-3.256-0.616-0.272 0.232c-0.152 0.12-0.616 0.536-1.032 0.92-0.424 0.392-0.784 0.704-0.808 0.704-0.032 0-0.144-0.312-0.264-0.704-0.112-0.384-0.216-0.704-0.224-0.712 0 0-1.952-0.424-4.328-0.944-2.376-0.512-4.392-0.944-4.488-0.968-0.128-0.032-0.288 0.096-0.72 0.584zM18.888 10.16c0.632 0.192 1.304 0.6 1.224 0.744-0.24 0.4-0.696 1.024-0.736 1-0.032-0.016-0.304-0.144-0.6-0.296-0.44-0.224-0.64-0.272-1.056-0.28-0.432-0.008-0.536 0.024-0.712 0.184-0.336 0.32-0.264 0.656 0.184 0.88 0.16 0.080 0.624 0.24 1.032 0.36 1.384 0.392 1.92 0.8 2.096 1.584 0.216 0.952-0.192 1.792-1.056 2.216-1.12 0.544-2.68 0.352-3.84-0.488l-0.384-0.272 0.448-0.528 0.448-0.536 0.32 0.232c1.16 0.84 2.816 0.704 2.592-0.208-0.072-0.272-0.296-0.392-1.288-0.68-1.336-0.384-1.896-0.728-2.112-1.296-0.144-0.368-0.104-1.256 0.064-1.624 0.184-0.416 0.744-0.888 1.208-1.032 0.544-0.168 1.568-0.152 2.168 0.040zM13.416 10.312c0.888 0.392 1.36 1.232 1.288 2.256-0.056 0.72-0.312 1.216-0.824 1.608-0.52 0.392-1.104 0.544-2.104 0.544h-0.816v2h-1.52v-6.648l1.784 0.024c1.664 0.024 1.8 0.032 2.192 0.216zM15.504 21.496l0.024 0.504h-6.088v-0.464c0-0.256 0.024-0.496 0.056-0.52 0.032-0.032 1.384-0.048 3.016-0.040l2.968 0.024 0.024 0.496z"></path>
        <path d="M10.96 12.44v1h0.584c1.12-0.008 1.56-0.24 1.632-0.888 0.048-0.464-0.072-0.752-0.392-0.952-0.216-0.128-0.408-0.16-1.040-0.16h-0.784v1z"></path>
    </symbol>
    <symbol id="sublime" viewBox="0 0 448 448">
        <rect width="448" height="448" fill="#fff" fill-rule="nonzero" rx="28"/>
        <path fill="#000" d="M352,225.117193 C352,221.218498 349.1196,218.970345 345.584887,220.087307 L102.415113,297.221712 C98.873288,298.345788 96,302.422344 96,306.313924 L96,385.148673 C96,389.047368 98.873288,391.302635 102.415113,390.178559 L345.584887,313.051268 C349.1196,311.927192 352,307.850636 352,303.951941 L352,225.117193 L352,225.117193 Z"/>
        <path fill="#000" d="M96,223.042442 C96,226.940903 98.8728889,231.017214 102.414222,232.141222 L345.585778,309.278106 C349.127111,310.402114 352,308.146983 352,304.255636 L352,225.418512 C352,221.527165 349.127111,217.450854 345.585778,216.326845 L102.414222,139.189962 C98.8728889,138.065953 96,140.313971 96,144.212432 L96,223.042442 Z"/>
        <path fill="#000" d="M352,63.3188598 C352,59.4201646 349.1196,57.1648974 345.584887,58.2889738 L102.415113,135.416264 C98.873288,136.540341 96,140.616896 96,144.515591 L96,223.35034 C96,227.249035 98.873288,229.497188 102.415113,228.380226 L345.584887,151.245821 C349.1196,150.121744 352,146.045189 352,142.153608 L352,63.3188598 Z"/>
    </symbol>
    <symbol id="wamp" viewBox="0 0 32 32">
        <path d="M26.6 19.594c0 3.85-3.119 6.969-6.969 6.969h-7.262c-3.85 0-6.969-3.119-6.969-6.969v-2.488h-4.213v2.856c0 5.956 4.831 10.788 10.787 10.788h8.050c5.956 0 10.787-4.831 10.787-10.788v-2.856h-4.212v2.488z"></path>
        <path d="M5.4 12.469c0-3.85 3.119-6.969 6.969-6.969h7.263c3.85 0 6.969 3.119 6.969 6.969v2.563h4.212v-2.931c0-5.956-4.831-10.787-10.788-10.787h-8.050c-5.956 0-10.787 4.831-10.787 10.787v2.931h4.213v-2.563z"></path>
        <path d="M20.188 7.662v11.662c0 0.556-0.45 1.006-1.006 1.006s-1.006-0.45-1.006-1.006v-4.294h-4.35v4.294c0 0.556-0.45 1.006-1.006 1.006v0c-0.556 0-1.006-0.45-1.006-1.006v-11.662c-2.444 0.406-4.306 2.525-4.306 5.081v6.575c0 2.844 2.306 5.15 5.15 5.15h0.363c0.7 0 1.363-0.137 1.969-0.394 0.356-0.15 0.694-0.337 1.006-0.556 0.313 0.219 0.65 0.406 1.006 0.556 0.606 0.25 1.275 0.394 1.969 0.394h0.363c2.844 0 5.15-2.306 5.15-5.15v-6.575c0.012-2.556-1.85-4.675-4.294-5.081z"></path>
    </symbol>
    <symbol id="swimming" viewBox="0 0 32 32">
        <path d="M29.572 19.424c-0.807-0.398-1.689-0.623-2.588-0.661l0.046-0.050-13.963-12.964c-1.583-1.47-4.058-1.379-5.529 0.204-0.169 0.182-0.32 0.379-0.451 0.589l-4.291 6.868-2.596 2.076c-0.225 0.18-0.266 0.506-0.093 0.737l1.6 2.133c0.17 0.227 0.487 0.281 0.723 0.124l3.2-2.133c0.044-0.030 0.083-0.066 0.117-0.107l4.427-5.411 2.94 2.94-5.422 5.422c-1.709-0.665-3.619-0.58-5.262 0.234-0.754 0.376-1.585 0.573-2.428 0.573v1.067c1.008-0 2.002-0.234 2.905-0.683 1.53-0.761 3.327-0.761 4.856 0 1.83 0.909 3.98 0.909 5.81 0 1.53-0.761 3.327-0.761 4.856 0 1.83 0.909 3.98 0.909 5.81 0 1.529-0.761 3.327-0.761 4.857 0 0.903 0.449 1.897 0.682 2.905 0.683v-1.067c-0.843-0.002-1.674-0.199-2.428-0.576zM23.762 19.424c-1.53 0.761-3.327 0.761-4.857 0-1.83-0.909-3.98-0.909-5.81 0-1.356 0.673-2.931 0.752-4.348 0.218l5.496-5.494c0.208-0.208 0.208-0.546 0-0.754l-3.733-3.733c-0.208-0.208-0.546-0.208-0.754 0-0.013 0.013-0.024 0.026-0.036 0.039l-4.747 5.805-2.717 1.809-0.987-1.316 2.263-1.81c0.047-0.038 0.087-0.083 0.119-0.134l4.341-6.945c0.833-1.333 2.589-1.738 3.922-0.905 0.153 0.096 0.296 0.205 0.428 0.328l13.257 12.311c-0.638 0.101-1.258 0.297-1.838 0.581z"></path>
        <path d="M29.572 22.456c-1.83-0.909-3.98-0.909-5.81 0-1.53 0.76-3.327 0.76-4.857 0-1.83-0.909-3.98-0.909-5.81 0-1.53 0.76-3.327 0.76-4.857 0-1.83-0.909-3.98-0.909-5.81 0-0.754 0.376-1.585 0.572-2.428 0.573v1.067c1.008-0.001 2.003-0.236 2.905-0.686 1.53-0.761 3.327-0.761 4.856 0 1.83 0.909 3.98 0.909 5.81 0 1.53-0.761 3.327-0.761 4.856 0 1.83 0.909 3.98 0.909 5.81 0 1.529-0.761 3.327-0.761 4.857 0 0.902 0.45 1.897 0.685 2.905 0.686v-1.067c-0.843-0.001-1.674-0.197-2.428-0.573z"></path>
        <path d="M29.572 25.656c-1.83-0.909-3.98-0.909-5.81 0-1.53 0.76-3.327 0.76-4.857 0-1.83-0.909-3.98-0.909-5.81 0-1.53 0.76-3.327 0.76-4.857 0-1.83-0.909-3.98-0.909-5.81 0-0.754 0.376-1.585 0.572-2.428 0.573v1.067c1.008-0.001 2.003-0.236 2.905-0.686 1.53-0.761 3.327-0.761 4.856 0 1.83 0.909 3.98 0.909 5.81 0 1.53-0.761 3.327-0.761 4.856 0 1.83 0.909 3.98 0.909 5.81 0 1.529-0.761 3.327-0.761 4.857 0 0.902 0.45 1.897 0.685 2.905 0.686v-1.067c-0.843-0.001-1.674-0.197-2.428-0.573z"></path>
        <path d="M26.133 4.704c-2.062 0-3.733 1.671-3.733 3.733v2.667c0.002 2.061 1.672 3.731 3.733 3.733 2.061-0.002 3.731-1.672 3.733-3.733v-2.667c0-2.062-1.671-3.733-3.733-3.733zM25.682 13.73c-1.28-0.218-2.216-1.328-2.215-2.627v-1.6h2.231c-0.063 0.171-0.096 0.351-0.098 0.533 0 0.884 0.716 1.6 1.6 1.6h1.067c0.166-0.002 0.331-0.031 0.488-0.084-0.247 1.45-1.623 2.425-3.073 2.178zM28.267 10.57h-1.067c-0.295 0-0.533-0.239-0.533-0.533s0.239-0.533 0.533-0.533h1.067c0.295 0 0.533 0.239 0.533 0.533s-0.239 0.533-0.533 0.533zM23.467 8.437c0.002-1.472 1.195-2.665 2.667-2.667 1.472 0.002 2.665 1.195 2.667 2.667h-5.333z"></path>
    </symbol>
    <symbol id="music" viewBox="0 0 32 32">
        <path d="M18.886 0h-17.951c-0.283 0-0.513 0.23-0.513 0.513v30.791c0 0.283 0.23 0.513 0.513 0.513h17.951c0.283 0 0.513-0.23 0.513-0.513v-30.791c0-0.283-0.23-0.513-0.513-0.513zM18.372 30.791h-16.924v-29.765h16.924v29.765z"></path>
        <path d="M2.988 13.341h1.369c0.283 0 0.513-0.23 0.513-0.513s-0.23-0.513-0.513-0.513h-0.855v-9.236h12.819v9.236h-9.911c-0.283 0-0.513 0.23-0.513 0.513s0.23 0.513 0.513 0.513h10.424c0.283 0 0.513-0.23 0.513-0.513v-10.262c0-0.283-0.23-0.513-0.513-0.513h-13.845c-0.283 0-0.513 0.23-0.513 0.513v10.262c0 0.283 0.23 0.513 0.513 0.513z"></path>
        <path d="M9.91 15.759c-3.478 0-6.307 2.829-6.307 6.307s2.829 6.307 6.307 6.307 6.307-2.829 6.307-6.307c0-3.478-2.829-6.307-6.307-6.307zM9.91 27.346c-2.912 0-5.28-2.369-5.28-5.28s2.369-5.28 5.28-5.28 5.28 2.369 5.28 5.28c0 2.912-2.369 5.28-5.28 5.28z"></path>
        <path d="M9.91 19.295c-1.528 0-2.771 1.243-2.771 2.771s1.243 2.771 2.771 2.771 2.771-1.243 2.771-2.771-1.243-2.771-2.771-2.771zM9.91 23.811c-0.962 0-1.745-0.783-1.745-1.745s0.783-1.745 1.745-1.745 1.745 0.783 1.745 1.745-0.783 1.745-1.745 1.745z"></path>
        <path d="M23.367 12.037c-1.622 0-2.942 1.32-2.942 2.942 0 1.134 0.648 2.153 1.647 2.642v4.395c0 0.283 0.23 0.513 0.513 0.513h0.269v8.957c0 0.283 0.23 0.513 0.513 0.513s0.513-0.23 0.513-0.513v-8.957h0.269c0.283 0 0.513-0.23 0.513-0.513v-4.395c0.998-0.489 1.647-1.508 1.647-2.642 0-1.622-1.32-2.942-2.942-2.942zM24.66 16.393c-0.027-0.259-0.245-0.46-0.51-0.46-0.283 0-0.513 0.23-0.513 0.513v5.057h-0.538v-5.057c0-0.283-0.23-0.513-0.513-0.513-0.265 0-0.484 0.202-0.51 0.46-0.388-0.355-0.623-0.863-0.623-1.413 0-1.056 0.86-1.916 1.916-1.916s1.916 0.86 1.916 1.916c0 0.55-0.235 1.058-0.623 1.414z"></path>
        <path d="M31.578 9.232c0-1.622-1.32-2.942-2.942-2.942s-2.942 1.32-2.942 2.942c0 1.134 0.648 2.153 1.647 2.642v4.395c0 0.283 0.23 0.513 0.513 0.513h0.269v14.704c0 0.283 0.23 0.513 0.513 0.513s0.513-0.23 0.513-0.513v-14.704h0.269c0.283 0 0.513-0.23 0.513-0.513v-4.395c0.998-0.489 1.647-1.508 1.647-2.642zM29.929 10.646c-0.027-0.258-0.245-0.46-0.51-0.46-0.283 0-0.513 0.23-0.513 0.513v5.057h-0.538v-5.057c0-0.283-0.23-0.513-0.513-0.513-0.265 0-0.484 0.202-0.51 0.46-0.388-0.355-0.623-0.863-0.623-1.413 0-1.056 0.86-1.916 1.916-1.916s1.916 0.859 1.916 1.916c0 0.55-0.235 1.058-0.623 1.414z"></path>
    </symbol>
    <symbol id="film" viewBox="0 0 32 32">
        <path d="M29.731 12.026h-21.679l20.943-6.092c0.334-0.097 0.525-0.447 0.428-0.78l-1.366-4.701c-0.097-0.334-0.447-0.525-0.78-0.428l-25.172 7.338c-0.334 0.097-0.525 0.447-0.428 0.78l1.259 4.279c-0.029 0.072-0.043 0.149-0.044 0.227v4.877c-0.001 0.329 0.251 0.603 0.579 0.629v12.586c0 0.695 0.563 1.259 1.259 1.259h23.731c0.695 0 1.259-0.563 1.259-1.259v-12.586c0.348 0 0.629-0.282 0.629-0.629v-4.871c0-0.343-0.274-0.622-0.617-0.629zM27.705 13.285l-3.065 3.618h-2.479l3.065-3.618h2.479zM23.577 13.285l-3.065 3.618h-2.486l3.065-3.618h2.486zM19.449 13.285l-3.065 3.618h-2.486l3.065-3.618h2.486zM15.32 13.285l-3.090 3.618h-2.461l3.090-3.618h2.461zM8.707 13.285h2.479l-3.065 3.618h-2.479l3.065-3.618zM27.025 1.41l0.938 3.191-3.631-2.398 2.693-0.793zM22.74 2.668l3.965 2.637-2.379 0.692-3.965-2.643 2.379-0.686zM18.775 3.826l3.952 2.618-2.379 0.692-3.952-2.618 2.379-0.692zM14.811 4.984l3.952 2.618-2.379 0.692-3.952-2.618 2.379-0.692zM10.846 6.142l3.952 2.618-2.379 0.692-3.965-2.63 2.391-0.68zM6.882 7.3l3.952 2.618-2.379 0.68-3.952-2.618 2.379-0.68zM3.106 8.559l3.776 2.517-2.832 0.799-0.944-3.316zM4.131 13.285h2.92l-2.92 3.455v-3.455zM28.46 30.76h-23.75v-12.586h23.75v12.586zM29.096 16.916h-2.807l2.813-3.323-0.006 3.323z"></path>
        <path d="M15.654 25.443h-8.338c-0.695 0-1.259 0.563-1.259 1.259v1.447c0 0.695 0.563 1.259 1.259 1.259h8.338c0.695 0 1.259-0.563 1.259-1.259 0 0 0 0 0 0v-1.447c0-0.695-0.563-1.259-1.259-1.259zM15.654 28.149h-8.338v-1.447h8.338v1.447z"></path>
        <path d="M26.704 20.44c-0.348 0-0.629 0.282-0.629 0.629v6.765c0 0.348 0.282 0.629 0.629 0.629s0.629-0.282 0.629-0.629v-6.765c0-0.348-0.282-0.629-0.629-0.629z"></path>
    </symbol>
    <symbol id="plant" viewBox="0 0 32 32">
        <path d="M20.309 15.304c2.081-0.003 3.767-1.689 3.77-3.77v-1.616h-4.847c-1.014-0-1.986 0.41-2.693 1.137v-0.93l1.365-1.365c1.89-1.895 1.89-4.961 0-6.856l-1.904-1.904-1.904 1.904c-1.89 1.895-1.89 4.961 0 6.856l1.365 1.365v2.545c-0.707-0.727-1.679-1.137-2.693-1.137h-4.847v1.616c0.003 2.081 1.689 3.767 3.77 3.77h3.77v2.154h-7.54v3.232h1.106l0.539 9.695h12.868l0.539-9.695h1.106v-3.232h-7.54v-3.77h3.77zM19.232 10.995h3.77v0.539c-0.002 1.487-1.206 2.691-2.693 2.693h-3.77v-0.539c0.002-1.487 1.206-2.691 2.693-2.693zM11.691 15.842c-1.487-0.002-2.691-1.206-2.693-2.693v-0.539h3.77c1.487 0.002 2.691 1.206 2.693 2.693v0.539h-3.77zM21.415 30.923h-10.83l-0.479-8.617h11.788l-0.479 8.617zM23.002 20.151v1.077h-14.003v-1.077h14.003zM15.461 5.070v3.532l-0.604-0.604c-1.47-1.474-1.47-3.859 0-5.333l1.142-1.142 1.142 1.142c1.47 1.473 1.47 3.859 0 5.332l-0.604 0.604v-3.532h-1.077z"></path>
        <path d="M19.77 22.844h1.077v1.077h-1.077v-1.077z"></path>
        <path d="M19.77 24.46h1.077v1.077h-1.077v-1.077z"></path>
        <path d="M18.154 22.844h1.077v1.077h-1.077v-1.077z"></path>
    </symbol>
    <symbol id="book" viewBox="0 0 32 32">
        <path d="M16 13.867c0.673 0 1.258-0.253 1.6-0.441 0.342 0.188 0.927 0.441 1.6 0.441 0.993 0 2.103-0.564 2.577-1.304 0.047-0.071 1.156-1.766 1.156-4.563 0-2.059-1.675-3.733-3.733-3.733-0.603 0-1.153 0.221-1.6 0.457-0.447-0.235-0.997-0.457-1.6-0.457-2.059 0-3.733 1.675-3.733 3.733 0 3.16 0.983 4.388 1.197 4.617 0.482 0.607 1.472 1.25 2.537 1.25zM16 5.333c0.476 0 0.962 0.246 1.333 0.461 0.165 0.096 0.369 0.096 0.534 0 0.371-0.215 0.857-0.461 1.333-0.461 1.47 0 2.667 1.196 2.667 2.667 0 2.454-0.968 3.957-0.982 3.979-0.249 0.388-1.002 0.821-1.684 0.821-0.687 0-1.278-0.425-1.282-0.428-0.094-0.070-0.206-0.106-0.318-0.106s-0.224 0.035-0.318 0.106c-0.006 0.004-0.594 0.428-1.282 0.428-0.679 0-1.389-0.443-1.711-0.86-0.011-0.014-0.029-0.034-0.041-0.047-0.009-0.010-0.914-1.002-0.914-3.893-0-1.47 1.196-2.667 2.667-2.667z"></path>
        <path d="M17.143 3.475c0.1 0.166 0.276 0.259 0.458 0.259 0.093 0 0.188-0.025 0.274-0.076 0.252-0.151 0.334-0.479 0.182-0.732l-1.6-2.667c-0.151-0.252-0.479-0.334-0.732-0.182s-0.334 0.479-0.182 0.732l1.6 2.667z"></path>
        <path d="M18.808 3.398c0.037 0.012 0.378 0.122 0.828 0.122h0.001c0.638 0 1.193-0.218 1.603-0.628 0.976-0.976 0.526-2.372 0.506-2.432-0.053-0.159-0.178-0.284-0.337-0.337-0.038-0.012-0.378-0.122-0.829-0.122-0.638 0-1.192 0.217-1.603 0.628-0.976 0.977-0.525 2.372-0.506 2.432 0.053 0.159 0.178 0.284 0.338 0.338zM19.731 1.383c0.209-0.209 0.494-0.315 0.849-0.315 0.075 0 0.146 0.005 0.209 0.012 0.033 0.287 0.018 0.736-0.303 1.057-0.209 0.209-0.495 0.316-0.849 0.316-0.075 0-0.146-0.005-0.209-0.012-0.033-0.288-0.018-0.737 0.303-1.058z"></path>
        <path d="M30.4 14.933h-25.6c-0.882 0-1.6 0.718-1.6 1.6v2.133c0 0.294 0.239 0.533 0.533 0.533s0.533-0.239 0.533-0.533v-2.133c0-0.294 0.239-0.533 0.533-0.533h1.6v2.667c0 0.294 0.239 0.533 0.533 0.533s0.533-0.239 0.533-0.533v-2.667h13.867v2.667c0 0.294 0.239 0.533 0.533 0.533s0.533-0.239 0.533-0.533v-2.667h5.333v2.667c0 0.294 0.239 0.533 0.533 0.533s0.533-0.239 0.533-0.533v-2.667h1.6c0.294 0 0.533 0.239 0.533 0.533v3.733h-1.6c-0.294 0-0.533 0.239-0.533 0.533v4.8h-0.533c-0.294 0-0.533 0.239-0.533 0.533s0.239 0.533 0.533 0.533h1.6v3.733c0 0.294-0.239 0.533-0.533 0.533h-16.533v-2.667c0-0.294-0.239-0.533-0.533-0.533s-0.533 0.239-0.533 0.533v2.667h-1.067v-2.667c0-0.294-0.239-0.533-0.533-0.533s-0.533 0.239-0.533 0.533v2.667h-1.067v-2.667c0-0.294-0.239-0.533-0.533-0.533s-0.533 0.239-0.533 0.533v2.667h-4.8c-0.294 0-0.533-0.239-0.533-0.533v-2.133c0-0.294-0.239-0.533-0.533-0.533s-0.533 0.239-0.533 0.533v2.133c0 0.882 0.718 1.6 1.6 1.6h26.667c0.882 0 1.6-0.718 1.6-1.6v-3.733c0-0.693-0.549-1.067-1.067-1.067v-4.267h1.067c0.517 0 1.067-0.374 1.067-1.067v-3.733c-0-0.882-0.718-1.6-1.6-1.6z"></path>
        <path d="M20.8 26.667c0.294 0 0.533-0.239 0.533-0.533s-0.239-0.533-0.533-0.533h-5.867v-4.267h7.467v8c0 0.197 0.108 0.378 0.282 0.47s0.384 0.082 0.548-0.027l1.304-0.869 1.304 0.869c0.090 0.060 0.193 0.090 0.296 0.090 0.086 0 0.173-0.021 0.252-0.063 0.173-0.093 0.282-0.274 0.282-0.47v-8h0.533c0.294 0 0.533-0.239 0.533-0.533s-0.239-0.533-0.533-0.533h-25.6c-0.897 0-1.6 0.703-1.6 1.6v3.2c0 0.882 0.718 1.6 1.6 1.6h19.2zM23.467 21.333h2.133v7.003l-0.771-0.514c-0.179-0.119-0.413-0.119-0.592 0l-0.771 0.514v-7.003zM6.4 21.333h7.467v4.267h-7.467v-4.267zM1.067 25.067v-3.2c0-0.304 0.229-0.533 0.533-0.533h3.733v4.267h-3.733c-0.299 0-0.533-0.234-0.533-0.533z"></path>
        <path d="M11.2 22.4c-0.294 0-0.533 0.239-0.533 0.533v1.067c0 0.294 0.239 0.533 0.533 0.533s0.533-0.239 0.533-0.533v-1.067c0-0.294-0.239-0.533-0.533-0.533z"></path>
        <path d="M9.067 22.4c-0.294 0-0.533 0.239-0.533 0.533v1.067c0 0.294 0.239 0.533 0.533 0.533s0.533-0.239 0.533-0.533v-1.067c0-0.294-0.239-0.533-0.533-0.533z"></path>
    </symbol>
	<symbol id="arrow" viewBox="0 0 20 20">
		<path d="M11 10l-3.141-3.42c-0.268-0.27-0.268-0.707 0-0.978 0.268-0.27 0.701-0.27 0.969 0l3.83 3.908c0.268 0.271 0.268 0.709 0 0.979l-3.83 3.908c-0.267 0.272-0.701 0.27-0.969 0s-0.268-0.707 0-0.978l3.141-3.419z"></path>
	</symbol>
</svg>